<svg width="500" height="750" viewBox="0 0 500 750" fill="none" xmlns="http://www.w3.org/2000/svg">
<path d="M324.308 304H175.692C173.122 304 170.657 305.02 168.839 306.836C167.021 308.652 166 311.114 166 313.682V436.318C166 438.886 167.021 441.348 168.839 443.164C170.657 444.98 173.122 446 175.692 446H324.308C326.878 446 329.343 444.98 331.161 443.164C332.979 441.348 334 438.886 334 436.318V313.682C334 311.114 332.979 308.652 331.161 306.836C329.343 305.02 326.878 304 324.308 304V304ZM314.615 391.136L283.637 357.378C283.051 356.731 282.339 356.21 281.544 355.847C280.749 355.485 279.888 355.288 279.015 355.269C278.141 355.25 277.273 355.409 276.463 355.737C275.653 356.065 274.919 356.555 274.305 357.176L239.752 391.691L274.736 426.636H256.462L225.492 395.7C224.28 394.49 222.637 393.81 220.923 393.81C219.21 393.81 217.566 394.49 216.354 395.7L185.385 426.636V323.364H314.615V391.136ZM198.954 352.409C198.954 349.345 199.863 346.35 201.567 343.803C203.271 341.255 205.693 339.27 208.527 338.097C211.361 336.925 214.479 336.618 217.487 337.216C220.495 337.814 223.258 339.289 225.427 341.455C227.596 343.622 229.073 346.382 229.671 349.387C230.27 352.392 229.963 355.507 228.789 358.337C227.615 361.168 225.627 363.587 223.077 365.289C220.527 366.991 217.529 367.9 214.462 367.9C210.349 367.9 206.404 366.268 203.496 363.363C200.588 360.458 198.954 356.518 198.954 352.409V352.409Z" fill="#323232"/>
</svg>
